 <svg preserveAspectRatio="xMidYMid meet" data-bbox="54.027 115.28 251.983 129.443" viewBox="54.027 115.28 251.983 129.443" xmlns="http://www.w3.org/2000/svg" data-type="color" role="presentation" aria-hidden="true" aria-label="">
            <g>
              <path d="M161.93 175.52c-.43-.58.91-6.82-.95-7.53-2.66-1-6.5 1-8.2 6.26-1.34 4.15-.66 10.76.06 11.39.72.63 6.07.93 9.52-1.44 2.62-1.8 5.64-4.86 4.68-6.64-.9-1.67-4.33-1.02-5.11-2.04Z" fill="#fcae5d" data-color="1"></path>
              <path d="M167.65 192.67c.25.05.4.14.48.06-.17-.03-.43-.17-.48-.06Z" fill="#3e3e3f" data-color="2"></path>
              <path d="M188.62 200.09c-.1.05.11.15.12.08-.06-.02-.04-.06-.12-.08Z" fill="#3e3e3f" data-color="2"></path>
              <path d="M112.08 151.91c1.48 2.61 2.96 5.22 4.68 7.69.81 1.16 1.69 2.27 2.5 3.43.22.31.44.63.68.92.19.23.41.42.54.68.24.5.75.85 1.05 1.32.11-.1-.21-.5-.29-.6-.07-.08-.13-.12-.1-.23.02-.07-.18-.25-.23-.3-.57-.78-1.09-1.67-1.77-2.35-1.29-1.29-1.51-3.36-2.93-4.53-.02-.03-.03-.06-.05-.08-1.15-1.81-2.39-3.57-3.66-5.3.67.93 1.64 2.16-.44-.63Zm7.76 11.7c-.18-.23-.31-.48-.48-.71.12.14.61.6.48.71Z" fill="#3e3e3f" data-color="2"></path>
              <path d="M109.63 148.27q.02.28.16.28c-.05 0-.11-.2-.16-.28Z" fill="#3e3e3f" data-color="2"></path>
              <path d="M115.07 157.82c.14.13.14.36.3.41-.1-.12-.16-.37-.3-.41Z" fill="#3e3e3f" data-color="2"></path>
              <path d="M115.69 158.82c.17.31.39.64.58.96-.14-.39-.29-.77-.58-.96Z" fill="#3e3e3f" data-color="2"></path>
              <path d="M116.54 160.22c-.09-.13-.17-.26-.24-.39-.11.19.05.29.24.39Z" fill="#3e3e3f" data-color="2"></path>
              <path d="M116.88 160.78c.27-.3-.07-.42-.34-.57.13.19.26.39.34.57Z" fill="#3e3e3f" data-color="2"></path>
              <path d="M117.91 161.96c-.13-.11-.28-.49-.4-.4.25-.14-.5 1.44.4.4Z" fill="#3e3e3f" data-color="2"></path>
              <path d="M118.06 162.2c.04.1.16.26.22.39.13-.06-.16-.27-.22-.39Z" fill="#3e3e3f" data-color="2"></path>
              <path d="M118.82 163.22c-.17-.19-.31-.42-.46-.63-.05 0-.03.04 0 .06.01.06.08.13.09.15 0 .1-.08.04-.08.13.17.15.23.48.45.57 0-.11-.34-.39-.2-.48.06.04.12.29.2.19Z" fill="#3e3e3f" data-color="2"></path>
              <path d="M119.11 163.63c-.12-.11-.16-.25-.26-.37-.09.02.14.4.26.37Z" fill="#3e3e3f" data-color="2"></path>
              <path d="M121.55 166.6c-.84-.94-1.58-1.98-2.43-2.91-.15.22.31.67.46.77-.07-.16-.27-.31-.27-.5.42.49.79 1.02 1.21 1.51.19.22.39.43.56.65.13.17.25.4.47.46Z" fill="#3e3e3f" data-color="2"></path>
              <path d="M120.63 165.85c.16.2.44.44.49.61.09-.11-.34-.63-.49-.61Z" fill="#3e3e3f" data-color="2"></path>
              <path d="M119.43 164.96c-.13-.1-.06-.14-.15-.24-.14 0 .11.28.15.24Z" fill="#3e3e3f" data-color="2"></path>
              <path d="M111.59 149.22c-.12-.12 1.92 2.8 0 0Z" fill="#3e3e3f" data-color="2"></path>
              <path d="M107.25 143.02c-.18-.33-.33-.67-.51-1 .04.4.14.77.51 1Z" fill="#3e3e3f" data-color="2"></path>
              <path d="M103.88 133.8c-.11-.6-.26-1.19-.62-1.73.21.58.41 1.15.62 1.73Z" fill="#3e3e3f" data-color="2"></path>
              <path d="M109.37 146.62c.27.74.53 1.47.79 2.21-.08-.8-.41-1.51-.79-2.21Z" fill="#3e3e3f" data-color="2"></path>
              <path d="M104.4 136.47v-.02c-.13-.38-.28-.76-.41-1.14.14.39.28.77.42 1.16Z" fill="#3e3e3f" data-color="2"></path>
              <path d="M108.57 146.81c.1.26.35.66 0 0Z" fill="#3e3e3f" data-color="2"></path>
              <path d="M107.59 144.66c-.03-.17-.22-.55-.32-.83.06.24.19.63.32.83Z" fill="#3e3e3f" data-color="2"></path>
              <path d="M105.89 140.65c-.11-.2-.32-.3-.39-.54.14.52.6.92.72 1.44-.06-.15-.13-.31-.19-.46-.07-.15-.07-.31-.14-.45Z" fill="#3e3e3f" data-color="2"></path>
              <path d="M120.29 165.41c.24.46.02-.16-.15-.17.02.09.06.13.15.17Z" fill="#3e3e3f" data-color="2"></path>
              <path d="M96.65 194.57c-.87.08-1.56.68-2.21 1.21-.02.02-.05.03-.07.05.19-.08.37-.18.56-.28.55-.35 1.11-.69 1.72-.98Z" fill="#3e3e3f" data-color="2"></path>
              <path d="M92.26 197.93c-.1.08-.27.09-.33.22.12-.11.26-.08.33-.22Z" fill="#3e3e3f" data-color="2"></path>
              <path d="M93.37 197.3q-.37.22-.68.42c.22-.12.45-.27.68-.42Z" fill="#3e3e3f" data-color="2"></path>
              <path d="M94.91 196.07c-.1.1-.31.18-.32.32 1.18.65.38-.36.32-.32Z" fill="#3e3e3f" data-color="2"></path>
              <path d="M96.1 195.35c-.01.13.33-.08.35-.09l.45-.27c-.16.08-.33.14-.49.22.01-.02-.03-.01-.31.14Z" fill="#3e3e3f" data-color="2"></path>
              <path d="M84.86 200.39c-.16.02-.3.04-.53.07-.02.02.19 0 .45-.03-.21.1-.42.19-.64.28-.34.19-.69.36-.88.75.58-.41 1.2-.75 1.82-1.07.44-.06.78-.12.06-.04.09-.04.17-.09.25-.13l-.38.09c-.06.03-.11.06-.17.09Z" fill="#3e3e3f" data-color="2"></path>
              <path d="m107.45 190.33-.72.27c-.02.01-.05.03-.08.04.27-.1.53-.21.8-.31Z" fill="#3e3e3f" data-color="2"></path>
              <path d="M73.48 204.86c-.13.06-.25.12-.38.17.22.03.33-.05.38-.17Z" fill="#3e3e3f" data-color="2"></path>
              <path d="M79.59 203.32c.05-.07.12-.09.13-.21-.12-.05-.14.09-.13.21Z" fill="#3e3e3f" data-color="2"></path>
              <path d="M98.42 194.36c-.08.04-.16.07-.23.11-.02 0-.04.01-.06.02.02 0 .03-.02.05-.03-.17.06-.35.14-.52.2.26-.11.5-.24.76-.34-.47.18-.93.36-1.37.59-.06.03-.11.06-.16.09.24-.11.48-.22.73-.33.09-.03.19-.07.28-.1-.07.04-.14.07-.17.11.04-.02.1-.04.15-.06-.01 0-.02.02-.03.03a.3.3 0 0 1 .08-.04c.15-.06.3-.12.37-.13 0-.02-.02-.02-.06-.02.61-.22 1.22-.43 1.83-.65.47-.16.94-.33 1.41-.49-.78.28-1.61.47-2.38.75h.01c-.32.11-.63.25-.92.4l.24-.09Z" fill="#3e3e3f" data-color="2"></path>
              <path d="M82.69 203.33c.17.23.22-.05 0 0Z" fill="#3e3e3f" data-color="2"></path>
              <path d="M83.08 203.19c-.13.05-.25.11-.39.14.06.08.22-.01.39-.14Z" fill="#3e3e3f" data-color="2"></path>
              <path d="M80.92 204.04c-.15-.03-.44.19-.67.24q.3-.07.67-.24Z" fill="#3e3e3f" data-color="2"></path>
              <path d="M78.4 205.15c-.2.04-.69.26-.95.45.27.21.69.29.95-.45Z" fill="#3e3e3f" data-color="2"></path>
              <path d="M85.06 187.17c.05.04.13.07.17.13.05-.11-.11-.2-.17-.13Z" fill="#3e3e3f" data-color="2"></path>
              <path d="M77.08 185.66s.16.03.17-.02c-.05.01-.16-.07-.17.02Z" fill="#3e3e3f" data-color="2"></path>
              <path d="M89.67 188.15s.03.01.05.02c.02-.02.03-.05.06-.06-.05-.01-.09-.02-.11.05Z" fill="#3e3e3f" data-color="2"></path>
              <path d="M96.38 187.18c-.07 0-.02-.16-.1-.06.01.02.05.14.1.06Z" fill="#3e3e3f" data-color="2"></path>
              <path d="M75.75 180.14c-.1 0-.12-.08-.23-.06-.04.13.21.12.23.06Z" fill="#3e3e3f" data-color="2"></path>
              <path d="m306 243.69-.15-10.55c-2.04.16-3.91-.56-5.83-1.08-.08-.1-.15-.19-.14-.21.01-.04.14-.23.02-.21-.19-.16-.38-.31-.58-.46-.25-.19-.5-.37-.75-.55-.36-.27-.75-.51-1.12-.77-.91-.63-1.8-1.29-2.69-1.95-.14-.1-.73-.41-.64-.59.03-.06.18-.22.13-.29-.17-.06-.27-.21-.35-.37-.16-.29-.69-.4-.97-.61-.33-.24-.63-.52-.98-.74-.37-.24-.74-.46-1.05-.8-.2-.22-.55-.49-.86-.45.07.63.65.83.9 1.34.2.4-.77 0-.86-.04-.33-.15-.65-.32-.97-.5-.61-.34-1.35-.85-2.07-.75-.72.09-1.4-.38-2.02-.72-.45-.24-1.45-.56-1.39-1.16 0-.03-.5-.35-.57-.41-.22-.2-.54-.3-.72-.51-.18-.2-.35-.41-.51-.63-.13-.16-.28-.2-.45-.3-.28-.16-.52-.38-.78-.57-.2-.14-.6-.2-.53-.49.04-.19.1-.24-.08-.32-.14-.07-.26-.18-.36-.31.14-.1.76.12.76.11.03-.11-.96-.4-1.01-.42-.58-.23-1.12-.54-1.67-.84-.32-.18-.65-.35-.97-.51-.28-.14-.68-.23-.91-.44-.52-.47-1.32-.72-1.95-1.02-1.34-.64-2.74-1.21-4.18-1.56-.73-.18-1.45-.41-2.19-.55-.38-.07-.76-.12-1.14-.21.03 0 .05.02.08.02-.55-.13-1.09-.3-1.66-.33-.66-.03-1.39-.39-2.03-.57-.34-.09-.69-.14-1.02-.22-.25-.06-.38-.17-.61-.23-.32-.09-.63-.29-.97-.27-.32.02-.67-.11-.99-.17-.39-.07-.78-.14-1.16-.22-.38-.08-.72-.06-1.09-.12-.69-.09-1.46.18-2.17.2-.36.01-.73.02-1.07-.06-.22-.05-.44-.09-.66-.1-.47-.02-.91.13-1.24.47-.01 0-.02 0-.04-.01.1-.14.17-.26-.02 0l-.36-.15c-1.22-.49-2.51-.86-3.76-1.26-1.3-.43-2.77-.53-4.12-.72-1.34-.19-2.67-.36-4.01-.52-2.69-.32-5.38-.6-8.07-.95-2.53-.33-5.01-.79-7.5-1.34-1.29-.28-2.59-.54-3.9-.7-1.16-.14-2.3-.3-3.46-.16-2.35-3-7.33-4.56-6.43-.51-.68-.42-1.36-.84-2.03-1.25-2.02-1.25-4.15-2.34-6.22-3.51-1.95-1.1-3.97-2.03-5.98-3.01-.95-.46-1.91-.89-2.87-1.32.14-.27.18-.64 0-1.07-.25-.6-.74-.96-1.09-.81-.34.15-.42.75-.17 1.34-.85-.36-1.69-.71-2.56-1.04-1.22-.46-2.44-.89-3.71-1.21-1.04-.26-2.06-.54-3.07-.9-1.14-.42-2.2-1.03-3.35-1.43-1.17-.4-2.35-.67-3.55-.95-1.07-.25-2.13-.41-3.2-.64-1.24-.27-2.51-.47-3.76-.65-.62-.09-1.18-.17-1.78-.37-.63-.21-1.25-.43-1.88-.65-.3-.1-.6-.2-.91-.3-.12-.04-.27-.13-.39-.08-.1.03-.17.04-.27 0-.36-.1-.71-.23-1.07-.35.06-.74-.06-1.51-.33-2.16-.49-1.15-1.59-1.77-2.65-2.35-1.09-.6-2.39-.97-3.58-1.35-1.14-.37-2.31-.63-3.47-.94-2.31-.61-4.61-1.22-6.88-1.97-2.26-.75-4.48-1.63-6.59-2.75-1.03-.55-2.01-1.17-3.01-1.75-1.08-.63-2.17-1.22-3.23-1.9-1.08-.7-2.09-1.48-3.1-2.27-.2-.15-.32-.37-.52-.52l-.71-.56c-.3-.23-.59-.48-.87-.73-1.58-1.39-3.11-2.87-4.39-4.53-1.58-2.05-3.32-3.97-4.95-5.98-1.62-1.98-3.17-4.02-4.56-6.17-1.61-2.49-3.12-5.12-4.14-7.91-.24-.67-.49-1.35-.69-2.03l-.12-.44c-.05-.21-.2-.35-.32-.53-.24-.34-.43-.7-.61-1.07-.64-1.35-.93-2.82-1.44-4.22-.08.17-.17.35-.25.52-.28-.77-.56-1.55-.83-2.32-.08.18-.17.35-.25.52-.15-.42.12-.88-.03-1.3-.42.44-.77.9-.81 1.41 0-.02-.01-.03-.02-.05 0 .02 0 .05.01.07-.01.17.03.35.1.54.09.69.17 1.38.4 2.04.65 1.84 1.3 3.69 2.25 5.38l.09.18c-.04-.37-.05-.76-.19-1.09.52.64.88 1.46 1.02 2.24-.66-.19 0-.02 0 0-.13-.04-.22-.09-.31-.15.35.66.73 1.31 1.03 2.01.44 1.04.83 2.11 1.21 3.17-.28-.79-.56-1.57-.85-2.36.23.63.44 1.24.71 1.97.25-.99-.42-1.74-.92-2.55-.07-.18-.13-.36-.19-.54.07.2.13.36.19.54-.25-.41-.46-.84-.47-1.32.34.94.92 1.8 1.4 2.68-.11-.3-.21-.59-.32-.89-.09-.26-.19-.52-.28-.77.11.31.24.62.38.91-.04-.04-.06-.1-.1-.14.04.06.08.12.12.19.14.29.33.55.53.81l.12.18c-.21-.26-.51-.47-.62-.79.25.7.54 1.28 1.08 1.8-.1-.28-.22-.55-.34-.82 1.64 2.54 3.3 5.07 4.99 7.57-.42-.62-.83-1.24-1.2-1.89-.69-1.19-1.42-2.35-2.15-3.52a.454.454 0 0 0-.03-.08c.02.01.03.02.05.04 1.84 2.69 3.75 5.35 5.57 8.06-.7-.6-1.29-1.29-1.83-2.02.55.8 1.07 1.61 1.63 2.41 1.35 1.92 2.61 3.93 4.04 5.79.65.84 1.3 1.66 1.99 2.47.15.18 1.89 1.97 1.72 2.1-1.36-1.14-2.47-2.52-3.57-3.89-.35-.43-.67-.86-.99-1.28-.48-.8-.99-1.58-1.52-2.35-2.05-3.01-4.36-5.84-6.19-8.99 1.13 3.15 3.63 5.51 5.52 8.2.46.66.89 1.35 1.25 2.07.17.35.28.79.52 1.1.28.36.57.73.86 1.09.56.71 1.15 1.4 1.76 2.08.29.33.57.67.85 1.01.11.13.64.62.57.79-.25-.25-.51-.51-.86-.63.02.03.15.13.06.17-.22-.24-.5-.4-.73-.61-.19-.17-.51-.37-.63-.58-.16-.26-.43-.46-.63-.68-.21-.22-.43-.64-.72-.76.61.74 1.24 1.46 1.88 2.17.23.26.39.53.61.78.13.14.61.52.59.71-.09-.11-.86-.86-.98-.76.08.23.29.35.45.52.09.09.17.3.32.28-.07-.08-.17-.18-.18-.29.19.2.39.39.58.59.2.2.48.39.6.65.02.04.04.06 0 .12-.15-.07-.26-.21-.36-.33-.13-.14-.28-.16-.42-.26-.23-.17-.44-.42-.66-.61-.11-.1-.83-.83-.71-.95.07-.07-.69-.66-.72-.77-.12.14-1.48-1.44-1.65-1.6.24.44.65.78.96 1.18.16.21.34.41.52.61.03.04.39.37.39.44-.01.13.17.11.25.25.22.24.43.48.65.71.46.48.94.94 1.42 1.41.35.34.73.66 1.09.99-1.95.44-3.76 1.33-5.37 2.49-1.9 1.36-3.56 3-5.21 4.64l-1.17 1.17c-.4.39-.92.77-1.2 1.25-.6 1.02-1.49 1.77-2.46 2.44-.48.33-.99.75-1.53.99s-1.06.55-1.52.94c-.4.34-.76.74-1.04 1.19-.15.25-.44.44-.66.63-.28.24-.55.48-.83.72a117.57 117.57 0 0 1-4.04 3.35c-.06-.07-.13-.14-.17-.23.03-.06.08.02.12-.03-.51-.28-1.14-.55-1.56-.96-.33-.32-.73-.53-1.12-.81-.22-.16-.26-.47-.5-.64-.14-.1-.13-.11-.2-.26-.06-.12-.18-.15-.26-.25-.14-.18-.21-.39-.47-.41-.18-.02-.3-.19-.35-.34-.08-.24-.44-.35-.64-.44-.25-.12-.49-.24-.74-.36-.53-.27-1.03-.58-1.51-.91-.22-.15-.45-.29-.67-.44-.32-.2-.13.1-.28.03-.23-.1-.5-.13-.72-.26-.08.12.29.14.06.22-.16.06-.25-.08-.38-.13l-.42-.15c-.07-.02-.2 0-.26.01-.17.03-.2-.03-.35-.11-.27-.14-.58-.21-.84-.36-.21.11-.27 0-.47-.11-.26-.15-.53-.28-.8-.4-.09-.03-.02-.16-.14-.16-.06-.05-.15-.07-.14-.16.07 0 .17.04.25.04.04.01.08 0 .09-.03-.31-.15-.62-.31-.94-.45-.17-.08-.35-.15-.52-.21-.14-.05-.17-.13-.3-.18-.13-.2-.23-.22-.47-.29-.36-.1-.71-.22-1.06-.33-.32-.1-.63-.2-.95-.27-.08-.02-.55-.03-.58-.09-.04-.08-.63-.11-.74-.14a6.37 6.37 0 0 0-.87-.17c-.31-.02-.59-.13-.89-.16-.34-.03-.68-.01-1.02-.05-.36-.04-.72-.07-1.08-.08-.29 0-.63.08-.91.04-.16-.02-.41-.05-.53.05-.21.17-.45.04-.71.03-.27-.01-.55 0-.82-.05-.1-.02-.45-.27-.51-.22.07.09.23.08.25.22-.18-.07-.37-.03-.56-.06 0 .16.19.31-.07.37-.22.05-.45.01-.67 0-.25-.02-.5 0-.75.02-.25.01-.42.09-.67.15-.17.04-.35.06-.53.05-.09.09-.2.15-.32.2-.22.08-.49-.06-.7-.13-.14-.05-.49-.41-.53-.59-.1-.47-.68-.27-1-.51-.11-.08-.28-.13-.41-.17-.08-.03-.18-.06-.23-.14-.09-.03-.13.05-.21.02 0-.12-.39-.16-.49-.2-.19-.09-.41-.13-.62-.18-.2-.04-.38-.13-.56-.22-.21-.09-.47-.12-.7-.19-.3-.09-.61-.16-.92-.19-.14-.02-.28-.03-.41-.04a.543.543 0 0 0-.27-.09c-.18 0-.37.02-.55.02-.25.11-.45.33-.73.34-.5.01-1.19-.02-1.46-.49-.16-.28-.25-.35-.55-.47-.21-.08-.42-.15-.64-.19-.53-.09-1.05-.13-1.59-.19-.46-.05-1.05-.14-1.5.02-.18.06-.31 0-.47.09-.13.06-.27.09-.41.12-.3.05-.6.1-.91.16-.28.06-.48.19-.71.35-.11.08-.22.16-.34.23-.02.12-.09.21-.15.3-.22.33-.04 1.18.11 1.53.06.15.02.21.15.3.09.07.18.14.27.2.23.14.47.03.71-.02.17-.04.34-.06.51-.04.19.03.17-.04.33-.13.22-.12.48-.17.74-.19.57-.03 1.14.08 1.69.23.14.18.36.25.4.5 0 .25-.1.51 0 .76.1.16.31.16.47.12.19-.05.28-.08.48-.1.57-.06 1.1.12 1.67.13.58.01 1.11.17 1.68.22.4.31 1.12.33 1.6.4.49.08 1 .08 1.49.09.5.02.99-.02 1.5-.05.28-.01.57-.03.85 0 .22.08.44.18.66.27.49.21.97.41 1.49.52.52.12 1.05.16 1.57.29.4.1.92.23 1.25.47.41.29 1.04.28 1.51.49.85.09 1.66.22 2.52.41 1.08.23 2.26.13 3.36.25.57.06 1.12.09 1.66.27.27.09.55.16.82.22.31.07.55 0 .87 0 .42.02 1.31.07 1.39.55.07.4.57.63.93.72.46.38 1.15.49 1.7.65.11.03.21.06.3.11.09-.04.19-.07.3-.06.22.04.25-.15.51-.1.41.07.81.17 1.22.26.13.03.27.06.4.08.14.03.29.04.44.05.09.05.1.15.22.18.31.04.56.21.88.24.28.03.55.07.83.13.53.12 1.05.34 1.55.55.32.13.64.28.94.46.07.04.15.13.23.07.05-.04.11-.08.16-.01.5.25.98.54 1.5.75.13.02.18-.06.33-.01.12.04.24.05.36.07.22.03.47.05.65.18.03-.08.09-.11.18-.1-.54.42-1.08.86-1.64 1.26-1.08.78-2.15 1.58-3.23 2.37-.52.37-1.11.67-1.65.99-.58.35-1.17.7-1.75 1.05-2.16 1.29-4.38 2.54-6.81 3.28-1.23.38-2.47.6-3.76.61-.61 0-1.22-.03-1.82-.1-.3-.04-.64-.15-.93-.08-.33.08-.67.16-1 .26-1.01.31-2 .74-2.79 1.45-.38.34-.71.75-.97 1.19-.12.21-.28.37-.06.55.18.14.41.21.63.27.19.05.39.08.57.15-.13-.01-.28.04-.4 0-.68-.18-.12-.03-.01 0-.52-.13-.23.58-.38.92.24-.11.47-.23.73-.28.47-.09.85.18 1.13.53-.75-.09-1.39.05-2.09.3.54-.19 1.34-.01 1.84.22-.39.14-.78.28-1.17.41 1.71.21 3.48-.36 4.83-1.4.7-.54 1.6-.91 2.43-1.25.64-.25 1.42-.38 2.14-.38-.08.06-.16.12-.24.17.1-.04.21-.06.31-.11V203c.15 0 .31-.03.44-.01-.1-.05-.21-.07-.31-.11.17-.12.33-.19.37-.05-.09-.09-.29-.3-.43-.23-.07.04-.09.13-.09.22-.05-.02-.11-.04-.16-.06l.09-.03c-.48-.23-1.03-.17-1.52-.4-.56.01-1.06.25-1.5.58.32-.66.83-.75 1.4-.72h.11c.74.06 1.55.28 2.13-.19-.55-.04-1.1.03-1.65.08.26-.11.49-.29.6-.53-.33.12-.59-.22-.92-.1.76-.19 1.48-.47 2.19-.77.11-.06.23-.12.33-.21-.03-.01-.23.03-.14-.05.24-.03.46-.11.69-.15 2.15-1.04 4.16-2.42 6.22-3.61.74-.43 1.5-.83 2.28-1.18.4-.18.76-.36 1.13-.59-.35.22-.7.44-1.06.65-.97.57-1.9 1.18-2.84 1.8.18-.17.38-.31.56-.49-1.7 1.55-3.87 2.33-5.91 3.34.81-.19 1.58-.44 2.32-.79-.44.31-.89.61-1.33.92 1.92-1.26 4.02-2.22 5.98-3.42.27-.1.54-.21.8-.33-.49.29-.98.59-1.48.86-1.54.82-3.12 1.6-4.52 2.64.63-.44 1.78-1.4-.23.15.48-.26.98-.63 1.5-.78.53-.16 1.04-.36 1.54-.59.98-.46 1.89-1.03 2.78-1.64.96-.66 1.87-1.39 2.88-1.98.95-.55 1.94-1.02 2.97-1.38-1.28.23-2.4.88-3.48 1.56-.06.04-.13.06-.2.1-.26.17-.53.33-.79.51-.14.09-.28.16-.42.24.23-.14.46-.28.65-.47-.26.11-.53.22-.79.33.34-.25.69-.49 1-.78.56-.35 1.15-.66 1.76-.92 1.22-.51 2.55-.79 3.83-1.13-.3.31-.67.52-1.06.71.29-.1.59-.19.89-.28 1.22-.35 2.39-.88 3.54-1.42.51-.24 1-.54 1.49-.81-.02 0-.05.02-.06.02.03-.11.22-.1.4-.23 0 .01-.04.03-.06.04.44-.25.9-.48 1.34-.73-.33.13-.67.24-.99.39-.27.12-.54.25-.79.4-.2.12-.47.31-.71.33.27-.17.27-.15.2-.1.75-.44 1.55-.76 2.37-1.06.07-.04.14-.07.21-.11 1.15-.64 2.29-1.29 3.44-1.95 2.31-1.33 4.61-2.67 6.9-4.04 1.13-.67 2.26-1.35 3.38-2.04.81-.49 1.5-1.08 2.25-1.65 2.29-1.73 5.6-3.66 5.91-6.8v-.2c.16.12.31.25.47.37.13.13.27.25.41.38.07.07.13.16.22.19.07.02.14 0 .21.02.54.23 1.01.67 1.54.94 1.06.53 2.05 1.19 3.09 1.79 2 1.15 4.03 2.27 6.06 3.38l-1.26-.21c-1.42-.24-2.8-.59-4.2-.92-.15-.03-.3-.07-.45-.1-.17-.04-.24.08-.38.04-.36-.11-.73-.19-1.11-.27l-1.03-.24c-.32-.09-.63-.3-.98-.28.3.09.58.25.88.34.03 0 .46.16.46.15.03.15-.36.07-.44.05-.08-.02-.27-.1-.34-.07.15-.06.07.27-.08.07-.07.17 1.09.45 1.2.52-.18 0-.34-.06-.51-.1-.16-.04-.44-.24-.61-.13.16.04.46.06.55.23-.05.06-.22-.07-.25 0 .07.02.41.14.2.22.15.03 1.67.56 1.63.67-.29.07-.58-.19-.89-.13-.19.04-.34-.04-.52-.1-.04-.01-.57-.15-.51-.05.04.06.21.05.27.09.16.11.39.16.57.24.23.1.45.2.68.3.23.1.29.08.22.28.07.01.39.12.41.19.04.13-.07.1.14.15.38.1.77.26 1.15.38.9.3 1.74.69 2.6 1.07 1.71.74 3.59 1.18 5.39 1.63 1.85.46 3.72.88 5.57 1.34 1.04.26 2.07.53 3.09.85.48.15.95.34 1.42.51.25.09.92.22 1.03.48-.52-.04-.98-.33-1.5-.37.14.05.08.18.17.26.13.12.42.18.58.25.2.08.41.15.61.23.06.03.39.21.37.21-.02 0-.06-.06-.08-.04-.03.04.86.36.98.41.42.16.84.32 1.25.48.85.32 1.72.61 2.59.88.76.24 1.53.46 2.31.64.45.1.89.2 1.34.28.15.06.55.17.69.04-.25-.18-.62-.11-.87-.3.35-.14.76.06 1.08.17.36.12.81.1 1.14.31-.1 0-.25-.05-.35.01.58.14 1.16.17 1.73.36.54.18 1.06.41 1.59.62.24.09.5.16.71.3.21.14.35.26.59.33.61.17 1.23.33 1.84.51 1.02.29 2.03.59 3.06.86.78.21 1.56.43 2.33.69.61.21 1.22.42 1.84.63.51.18 1.2.54 1.75.51.1.05.15.16.24.23s.2.08.3.12c.25.1.48.21.73.29.64.21 1.24.43 1.86.7 2.03.89 4.14 1.9 6.04 2.84.25.12.5.25.77.34.23.08.4.25.64.34.19.07.37.22.54.27.24.08.53.3.78.34-.04.07 0 .31.11.19.03-.04-.14-.1-.07-.17.34.29.86.4 1.24.63.39.24.85.49 1.28.67.74.57 1.71.84 2.52 1.31.93.54 1.94.92 2.91 1.39 1.07.52 2.1 1.18 3.13 1.77 1.92 1.08 3.82 2.17 5.67 3.37.45.29.88.61 1.33.91-.21 1.09-.6 2.11-1.13 3.22-1.4 2.93-4.66 8.29-6.37 9.43-1.72 1.14-1.04 8.98 1.9 6.37 2.94-2.61 11.05-8.77 12.18-13.93.03-.15.06-.27.09-.41.64.93 1.32 1.79 2.25 2.42.89.6 1.9.97 2.96 1.04 1.23.08 2.54-.17 3.7-.56.61-.21 1.21-.47 1.78-.79.29-.16.5-.32.84-.33.3-.01.61 0 .91 0 .36.01.74-.18 1.09-.28.31-.09.62-.17.93-.24.61-.14 1.23-.25 1.85-.32 1.29-.13 2.59-.02 3.82.39h-.42c1.01.33 2.02.38 3.06.38 1.47-.21 2.94-.02 4.4.22.04.09.08.18.15.24.52.33 1.07.62 1.65.81.55.18 1.1.2 1.67.27.6.08 1.19.13 1.79.09.08 0 .51-.09.53.02 0 .09.56-.04.67-.04.15 0 .49-.1.57.03.07.11.65 0 .78-.01.57-.02 1.17.02 1.75.05.6.03 1.21.05 1.81.13.29.03 1.28.31 1.45.14-.04.04.55.21.59.22.17.04.46-.07.6.05.14.13.24.05.41.11.48.17.98.22 1.46.37.23.07.46.16.69.24.1.03.35.17.45.15.19-.04.36.11.57.18.27.08.54.14.81.21.14.04.69.14.72.3.01.07.31.06.39.08.48.1.9.36 1.35.55.56.24 1.16.42 1.74.59l1.03.3c.16.05.54.09.59.26 0 0 .52.09.57.11.2.07.47.26.69.1 1.06.61 2.34.56 3.45 1.05.21.09.37.28.53.04.03-.05.35.05.43.05.23-.01.41.17.63.29.23.12.47.23.71.32.56.21 1.01.48 1.51.8.04.03.21.17.26.13.07-.06.06-.03.12.03.16.15.37.25.57.35.25.12.5.25.77.3.13.02.26.04.4.04.07.1.14.19.22.27.33.33.76.52 1.19.67.48.17 1.01.28 1.44.57.51.34 1 .21 1.54.4-.44-.36-1.03-.48-1.34-1.01.19-.12.46.05.65.1.27.06.52.15.79.21.6.13 1.17.33 1.75.52.54.18 1.08.35 1.61.54.2.07.92.42 1.03.18-1.01-.33-2.02-.63-3-1.04.21-.31.9.14 1.17.21.18.05.32.05.51.13.18.07.37.14.55.2l.96.3c.61.2 1.22.5 1.76.86.23.15.48.38.75.42.13-.03-.02.2-.01.25 0 .07.68.4.78.47.27.17.55.33.83.49.31.18.77.31 1.01.58.21.24.46.45.7.65.07.05.14.1.2.15-.08.14-.18.27-.24.41-1.17 2.76-.66 6.73 1.67 8.68-.12-.11-.27-.19-.39-.31.11.12.22.27.37.35.13.15.3.24.47.31-.06-.05-.13-.1-.19-.15.15.11.32.19.48.28-.1-.04-.2-.08-.29-.13.77.6 1.61 1.1 2.55 1.38 1.4.42 2.83.61 4.2-.04-.34 0-.59.33-.93.33 1.38-.01 2.79-.28 4-.99ZM106.08 140.28c-.04-.11-.18-.33-.08-.29.07.13.15.25.08.29Zm.24-.63c.19.35.42.81.56 1.21-.19-.26-.46-.84-.56-1.21Zm3.58 7.38v-.02c.04.04.06.1.1.14-.02-.05-.07-.07-.09-.12Zm9.95 14.12c.12.01.25.28.31.38-.14.04-.24-.26-.31-.38Zm2.73 2.32s.09.04-.01-.09c.18.22.37.44.52.69-.1 0-.44-.41-.5-.59Zm-45.24 39.56c.27-.13.56-.35.88-.34-.14.33-.14.18-.08.08-.18.28-.47.31-.8.26Zm2.25.28c-.31.42-1.28-.03-1.47.58.13-.19.24-.39.45-.49.3-.13.81-.46 1.14-.31-.03.5-.11.38-.13.21Zm16.04-8.97c.1-.06.2-.13.31-.19.06-.03.13-.05.19-.08-.17.09-.34.17-.5.27Zm154.45 16.93c.11.03.29-.09.27.21a.32.32 0 0 1-.27-.21Zm1.53.5s-.02.05 0 .04c-.12.23-.19.47-.18.73-.33-.21-.66-.43-.93-.75.4-.12.78-.12 1.16-.07-.02.02-.02.03-.04.06Zm.05-.04s0-.01.01-.02c0 0-.02 0-.02.02Zm23.19 13.28c.06 0 .17.06.15.14-.05-.07-.21.01-.15-.14Zm-.28-.19c.2-.38.67-.28.73.04-.24-.02-.48.07-.73-.04Z" fill="#3e3e3f" data-color="2"></path>
              <path d="M111.23 123.95v.32c.12-.03 0-.24 0-.32Z" fill="#3e3e3f" data-color="2"></path>
              <path d="M116.03 151.4h-.06s.09.06.06 0Z" fill="#3e3e3f" data-color="2"></path>
              <path d="M110.25 129.75c-.03-.05-.03-.17-.1-.16.04.09.04.15.1.16Z" fill="#3e3e3f" data-color="2"></path>
              <path d="M110.04 129.36c.07-.03-.03-.25-.09-.24l.09.24Z" fill="#3e3e3f" data-color="2"></path>
              <path d="M109.76 128.69s-.05-.16-.08-.15c.02.03.02.14.08.15Z" fill="#3e3e3f" data-color="2"></path>
              <path d="M110.62 122.01s-.05-.09-.09-.12c-.03.05.06.12.09.12Z" fill="#3e3e3f" data-color="2"></path>
              <path d="M106.45 117.09c.12.33.24.66.3 1 .13.75.41 1.47.7 2.17.31.74.64 1.46.95 2.2.16.38.3.76.41 1.16.04.15.26.79.14.93-.12-.16-.1-.38-.22-.54.02.06-.08.19-.07.3.03.16.09.32.08.48-.02 0-.03-.01-.02-.03.07.19.09.62.15.88.07.34.16.68.25 1.02.09.31.19.62.33.91.05.1.21.61.37.61.03-.12-.11-.22-.09-.34.16.05.38.62.36.77a.241.241 0 0 0-.1-.1c.1.26.26.45.33.73.06.25.08.51.14.75-.16.35.23.96.35 1.31.16.49.39.98.56 1.47.1.29.19.59.28.89.06.21.27.54.19.74-.07.18.13.55.2.72.04.29.1.58.15.87.1.55.25 1.15.25 1.71.05.19.01.48.14.7-.1.13.08.28.04.4-.02.07.03.09.03.18 0 .06 0 .12.03.18-.06 0-.09.02-.09.07.06.03.03-.06.09-.06-.09.43.29.96.14 1.39.09.3.14.6.14.92.11.26.14.57.21.85.16.64.12 1.33.25 1.99.11.53.11 1.12.14 1.67.04.65.04 1.29-.02 1.94-.06.61-.02 1.2.24 1.77.13.29.28.48.59.58.13.04.21-.01.34 0 .19.01.31.19.46.27.04.1.15.19.21.27.07.09.14.26.23.33.07.05.15.33.32.28 0-.01-.15-.09-.13-.11.1 0 .26.12.35.16.07 0 .45-.01.45-.04-.01 0-.12.04-.07.07.04-.09.18-.13.23-.22.04-.25.02-.39-.04-.64-.11-.47-.16-1.01-.19-1.49-.01-.24.12-.86-.06-1.04.15-.59.28-1.2.3-1.81.03-1.22-.12-2.43-.28-3.63-.15-1.05-.21-2.1-.43-3.13-.23-1.07-.4-2.13-.7-3.19-.16-.56-.34-1.1-.61-1.62-.21-.41-.37-.9-.43-1.37-.13-1.1-.57-2.09-1.12-3.04-.27-.47-.5-.96-.79-1.42-.15-.25-.31-.45-.39-.74-.08-.31-.15-.63-.24-.94-.06-.22-.17-.31-.23-.51-.08-.26-.14-.53-.21-.8-.06-.21-.12-.35 0-.54.1-.17-.15-.76-.19-.94-.1-.15-.11-.44-.13-.61-.03-.27-.13-.53-.22-.79-.2-.58-.43-1.16-.68-1.72-.48-1.07-.85-2.15-1.5-3.14-.35-.53-.66-1.08-.94-1.65-.04-.09-.14-.11-.16-.16-.04-.11-.09-.22-.14-.33-.06-.13-.12-.26-.16-.39-.03-.12 0-.28-.1-.37.04.15.08.39.09.52 0 .1-.25-.18-.21-.22.02.03.01.05-.02.06-.03-.01-.04-.03-.03-.06-.12.03.05.41.04.49-.07-.08-.08-.37-.17-.38.02.06.08.16.02.22a.234.234 0 0 0-.07-.07c0 .04.03.15-.06.12.03.06.17.62.1.64-.07-.03-.38-.62-.39-.61-.06.2.27.66 0 .75.08.11-.13.3.02.38Zm9.29 34v.07c-.02-.02-.05-.04-.07-.06.03-.02.05-.02.08 0Zm-.09-.1c-.03.05-.05-.03-.08-.03.02-.05.07.02.08.03Zm-.23-.3c-.06-.01-.3-.23-.28-.26.11 0 .29.17.28.26Zm-.32-.27s-.05-.03-.08-.04c.02-.04.1 0 .08.04Zm-.2-.18s-.13-.05-.18-.03c.07-.1.14.02.18.03Z" fill="#3e3e3f" data-color="2"></path>
              <path d="M293.29 237.7c-.03-.14.23.59-.03-.76 0 .2-.02.32.03.76Z" fill="#3e3e3f" data-color="2"></path>
              <path d="M295.7 242.69c-.06-.03.4.45 0 0Z" fill="#3e3e3f" data-color="2"></path>
              <path d="M298.07 244.25s.89.21.42.1c-.21-.05-.17-.03-.42-.1Z" fill="#3e3e3f" data-color="2"></path>
              <path d="M290.7 231.27c0-.05.01-.1.03-.16-.02-.01-.05-.02-.07-.03-.06.1-.04.13.04.19Z" fill="#3e3e3f" data-color="2"></path>
              <path d="M288.15 229.91c-.12.33.61.36.8.46.4.22.81.4 1.24.57.08.05.19.11.36.17-.34-.25-.49-.3-.48-.26-.62-.35-1.3-.61-1.93-.94Z" fill="#3e3e3f" data-color="2"></path>
              <path d="M266.36 213.25s.02 0 0 0Z" fill="#3e3e3f" data-color="2"></path>
              <path d="M240.19 218.29h-.27c-.05 0-.1 0-.15.01h.41Z" fill="#3e3e3f" data-color="2"></path>
              <path d="M190.79 214.69c-.99-.47-1.98-.88-2.99-1.3-2.47-1.03-5.04-1.74-7.61-2.47-2.59-.74-5.2-1.44-7.8-2.17-2.47-.69-4.93-1.41-7.36-2.24-1.26-.43-2.51-.87-3.78-1.27-1.23-.38-2.48-.78-3.74-1.04-1.1-.23-2.3-.38-3.42-.24-.47.06-.96.18-1.37.44-.17.11-.32.24-.45.39-.06.08-.12.16-.17.25-.08.14.02.16.11.27.34.45.76.88 1.11 1.34.35.46.67.93.99 1.41.66 1 1.31 2.02 2.1 2.92 1.58 1.8 3.89 2.46 6.15 2.71 1.32.15 2.65.13 3.96-.04.34-.05.71.07 1.05.14.32.07.61.1.95.11.65.02 1.3.05 1.95.11-.28.1-2.53 1.01-2.62.84.02.09-.08.1-.12.03-.02.13-.29.15-.38.18.06-.08.18-.11.26-.14-.67.1-1.29.41-1.91.68.04.11.82-.2.92-.23.18-.06.36-.12.55-.15.04.13.11.18-.07.25-.38.16-.76.32-1.14.47-.23.09-.47.18-.7.28-.1 0-.2.14-.32.16-.59.14-1.15.29-1.72.51-.44.18-.87.36-1.32.49-.09.03-1.02.19-1.02.17.03.03.07.04.12.03.02-.08.23-.04.33-.04-1.36.37-2.7.8-4.06 1.16.67-.05 1.33-.1 1.99-.19-.61.09-1.23.14-1.84.18-.17.01-.34.06-.51.1.12-.03.24-.05.36-.09-.58.04-1.15.08-1.73.15.18-.09.33-.29.54-.15.26.04.55-.05.8-.11-.42-.06-.84-.08-1.24.09-.24.1-.39.21-.65.25l-.54.09c.1.02.2.02.29.03-.16-.01-.32-.03-.47 0 .24.08.49.11.74.13-.35-.04-.67-.15-1.02-.07-.33.08-.66.18-.98.3.21 0 .31-.02.36-.04.57-.03 1.15-.08 1.71-.18l.45-.09c-.08 0-.16-.02-.24-.02.16 0 .32 0 .47-.03l-.23.06c.46 0 .85-.02 1.26-.24-.07.07-.14.14-.22.2.49-.05.48-.06.35-.06.26-.03.52-.07.78-.13-.07.01-.14.04-.21.05-.54.1-1.01.15-1.52.37.19-.08.44-.1.6-.24l-.41.03c-.3.07-.59.08-.89.1-.02 0-.11-.01-.19 0h.13c-.1 0-.2 0-.29.02-.42.07-.85.12-1.28.16-.43.03-.76.07-1.15.26.08-.04.16-.08.24-.11.05-.02.45-.11.17-.11.55-.16 1-.54 1.39-.95-.46.32-.95.6-1.45.83-.44.21-.97.11-1.45.05.32.11.65.16.99.15-.36.15-.68.26-1.06.29-.26.02-.54.06-.77.2.08 0 .15-.02.23-.03-.13.02-.23.08-.31.15-.04 0-.08.02-.1.05-.01.01 0 .03 0 .04l-.02-.01c.01 0 0 0 .02.01 0 .03 0 .06-.05.1-.24.15-.58.18-.85.21-.04 0-.13.01-.21 0 .15 0 1.23-.2 1.09-.33 0 .01-.6.12-.74.15-.31.07-.61.13-.92.18-.31.06-.62.11-.92.17-3.4.6-6.91 1.58-9.59 3.95.89.45 1.83.76 2.81.92.51.08 1.03.13 1.56.13.43-.07.86-.14 1.28-.22 1.82-.35 3.62-.84 5.39-1.38 3.64-1.12 7.2-2.48 10.85-3.57 2.37-.7 4.79-1.14 7.18-1.73.4-.1.77-.27 1.18-.35.5-.1.98-.2 1.47-.34.91-.26 1.96-.47 2.79-.93.17-.1.29-.22.48-.28.15-.05.3-.1.45-.16a28.029 28.029 0 0 0 2.46-.99c.18-.09.31-.19.51-.14.14.04.28.07.42.11.29.07.59.13.89.19.57.06 1.14.17 1.7.29 2.42.54 4.73 1.5 7.16 1.98-.49-.44-1.19-.46-1.79-.62-.11-.03-.34-.1-.2-.25.22-.23.27-.53.59-.67.59-.25 1.34.25 1.89.44.36.12.75.21 1.13.16.49.09 1.01.15 1.51.03-.31-.06-.64-.12-.93-.25-.08-.04-.22-.09-.24-.2-.03-.11.42-.14.49-.15.95-.07 1.9.39 2.76.75-.44-.4-1.1-.42-1.54-.82.83.44 1.92.91 2.85.57-2.05-.16-3.48-1.99-5.48-2.36.59.11 1.18.27 1.75.45 1.68.54 3.32 1.24 5.08 1.41-1.77-.94-4.02-.79-5.48-2.36.57.02 1.12.16 1.65.37Zm-42.2 6.24s-.07.01-.11.03c.15-.07.3-.17.46-.27-.11.09-.22.18-.35.24Zm2.84-.63c.28-.21.58-.4.89-.56.03-.02.07-.03.11-.05-.35.17-.68.37-1 .61Zm10.4-1.96c-.13.02-.31.09-.47.12.1-.03.21-.07.31-.1-.08.01-.11.02-.17.03.18-.04.36-.09.52-.22.01-.01.03-.01.05-.02-.12.09-.25.17-.4.21.05 0 .11-.02.16-.03Zm1.05-.59c.07-.03.13-.08.2-.1.09-.03.17-.05.26-.07-.16.05-.31.11-.46.17Zm-.25-.47s.35-.14.82-.3c-.29.12-.81.34-.82.3Zm1.87-.01s-.06.01-.08.02a11.952 11.952 0 0 0 .08-.02Zm.33-.59c.15 0 .32-.07.44-.12.12-.05.24-.11.36-.15-.27.07-.52.27-.81.27Zm1.61-.61c-.06.02-.13.04-.2.06.19-.05.38-.1.49-.25.03 0 .09-.02.14-.04-.15.1-.38.19-.44.23Zm-1.6.45c-.14.05-.28.09-.42.12.82-.28 1.64-.56 1.8-.61.26-.14.55-.18.81-.34-.65.39-1.48.55-2.19.82Z" fill="#3e3e3f" data-color="2"></path>
              <path d="M195.7 217.61c.16-.07.3-.04.41.02.12.12.06-1.42-.41-.02Z" fill="#3e3e3f" data-color="2"></path>
              <path d="M194.52 217.15c-.13-.11-.36-.17-.58-.22.21.11.39.22.58.22Z" fill="#3e3e3f" data-color="2"></path>
              <path d="m193.9 216.29.14.04c.05.06-.01-1.45-.14-.04Z" fill="#3e3e3f" data-color="2"></path>
              <path d="M193.5 215.95c.11-.13-.46-.23-.52-.24 0-.08-1.06-.48-1.18-.54.35.18.69.35 1.05.51.13.06.17.16.3.2.11.03.24.02.34.07Z" fill="#3e3e3f" data-color="2"></path>
              <path d="M165.5 215.71c0 .07.19 0 .11-.07-.07.01-.06.05-.11.07Z" fill="#3e3e3f" data-color="2"></path>
              <path d="M150.36 220.18c.05-.07.11-.12.18-.17-.95.1-1.96.14-2.78.69.76-.13 1.52-.28 2.28-.46-.04.02 0 .02.33-.07Z" fill="#3e3e3f" data-color="2"></path>
              <path d="M156.77 218.89c-.2.1-.41.18-.63.23.28-.01.43-.02.63-.23Z" fill="#3e3e3f" data-color="2"></path>
              <path d="M180.02 197.93c-1.23.22-4.54 1.83-8.06 2.43-4.74.8-8.62.38-10.99 4.31-2.29 3.79.5 9.07-.44 14.58-.64 3.8-1.74 8.17-.79 11.03.86 2.56 6.34 10.85 12.38 11.02 5.52.16 12.99-4.52 15.46-5.36 2.68-.92 5.53 1.23 9.83-.26 5.57-1.93 7.66-5.44 5.27-10.43-1.68-3.51-8.18-10.11-9.88-12.85-1.92-3.07-.06-4.52-3.67-9.31-2.78-3.71-5.73-5.75-9.09-5.17Z" fill="#fcae5d" fill-rule="evenodd" data-color="1"></path>
              <path d="M226.89 196.56c-1.02 3.51-3.38 5.86-5.28 5.25-1.9-.62-2.61-3.96-1.59-7.47 1.02-3.52 3.38-5.86 5.27-5.25 1.9.62 2.61 3.96 1.6 7.47Z" fill="#fcae5d" data-color="1"></path>
              <path d="M253.77 195.3c-2.59-.28-4.98.18-6.79 1.29-1.06-3.67-4.65-6.98-7.77-7.93-4.98-1.52-8.3 2.94-8.84 7.62-.34 2.93.29 5.09 2.6 6.88 1.39 1.08 4.74.83 7.63.95.79.03 3.23.83 3.88 2.12-1.79 2.32-5.36 5.55-6.49 6.79-1.93 2.1-3.58 9.55 1.2 6.66 3.38-2.04 9.43-6.13 12.56-8.44.1.01.19.03.29.04 5.16.56 9.79-2.78 10.33-7.46.55-4.68-3.44-7.96-8.6-8.52Z" fill="#fcae5d" data-color="1"></path>
              <path d="M191.68 199.56s4.78-2.89 8.66-2.14c3.87.75 4.85 2.5 7.04 4.17 2.18 1.66 1.9 6.58-.65 6.42-2.56-.17-6.05.11-7.34.97-1.29.85-3.44 2.38-6.31.64-2.86-1.74-4.65-8.53-1.4-10.05Z" fill="#fcae5d" fill-rule="evenodd" data-color="1"></path>
              <path d="M188.51 215.88c-2.05-4.09-5.25-6.5-5.96-6.04-.38.24.14 1.19 1.01 2.64-.36.02-.73.02-1.1-.03-1.82-.2-4.37-.87-5.4-1.16 0-.01.01-.02.01-.03.3-.88.2-1.73-.23-1.9-.44-.17-1.03.41-1.33 1.3-.31.88-.19 1.73.23 1.9.41.16.95-.36 1.26-1.15.94.54 3.31 1.79 5.34 2.01.6.07 1.18.04 1.74-.06.31.51.65 1.07.99 1.67-.92.23-1.9.43-2.92.53-2.78.28-5.6-.11-7.17-.4.15-.73.01-1.38-.39-1.54-.47-.18-1.1.39-1.39 1.27-.31.88-.17 1.75.3 1.93.47.18 1.1-.38 1.4-1.26v-.04c1.48.67 4.2 1.62 7.32 1.3 1.23-.12 2.39-.38 3.45-.71.2.36.4.74.59 1.12-1.51.77-3.36 1.38-5.39 1.71-2.56.42-5.01.64-6.48.75-.14-.74-.54-1.27-1.02-1.23-.57.04-1 .85-.97 1.82.03.96.52 1.71 1.08 1.66.56-.04 1-.85.97-1.81 1.42.26 3.76.5 6.56.04 2.2-.36 4.18-1.11 5.69-2.06.24.5.45.98.66 1.45-.99.22-2.04.54-3.08.99-3.09 1.32-5.33 3.81-6.41 5.21-.45-.51-1.02-.71-1.41-.43-.48.35-.5 1.28-.03 2.09.46.8 1.22 1.17 1.7.82.49-.35.5-1.28.04-2.09-.04-.06-.09-.11-.13-.17 1.31-1.1 3.87-3.09 6.61-4.26 1.08-.47 2.15-.82 3.18-1.07.21.51.4 1 .58 1.43-.98.25-2.02.7-3.02 1.38-2.15 1.47-2.41 4.02-2.41 5.13-.64-.1-1.21.17-1.3.63-.09.48.37.97 1.03 1.1.65.13 1.26-.15 1.35-.63.09-.46-.34-.93-.96-1.08.21-.97.85-3.06 2.74-4.34.97-.66 1.95-1.13 2.9-1.43.53 1.27.91 2 1.25 1.78.72-.45.58-4.67-1.48-8.75Z" fill="#3e3e3f" data-color="2"></path>
              <path d="M254.82 192.8c-.46.52-.11 1.65.77 2.57-1.17 1.08-2.8 2.88-3.44 4.97-.6-.16-1.29-.24-2.04-.25-.34-2.41-.21-5.1-.1-6.5.64.66 1.38.95 1.83.65.59-.38.49-1.61-.23-2.73-.72-1.12-1.79-1.72-2.38-1.33-.59.38-.49 1.61.23 2.73.12.18.25.32.38.47-.42 1.3-1.15 4.09-.96 6.76-.43.04-.88.1-1.33.19-1.08-2.82-2.48-5.71-3.03-6.81h.15c.85-.13 1.44-.74 1.29-1.36-.14-.62-.95-1-1.8-.87-.86.14-1.43.74-1.29 1.36.12.55.78.9 1.53.87.31 1.16 1.17 4.3 2 7.08-.32.09-.65.18-.95.29-1.28-2.21-3.28-4.14-4.39-5.11.84-.55 1.24-1.45.88-2-.36-.56-1.33-.56-2.18 0-.85.55-1.24 1.45-.89 2 .33.51 1.19.54 1.99.1.86 1.11 2.42 3.29 3.49 5.48-.69.33-1.28.71-1.78 1.11-1.87-1.56-4.3-2.25-5.53-2.5.11-.55-.03-1.07-.4-1.26-.44-.23-1 .11-1.27.76-.26.65-.13 1.37.31 1.6.44.23 1.01-.11 1.28-.76.02-.05.02-.1.04-.16 1.08.49 3.12 1.57 4.73 3.14-.57.7-.8 1.44-.59 2.12.56 1.8 3.99 2.5 7.68 1.58 3.68-.92 6.22-3.13 5.67-4.92-.16-.52-.58-.94-1.16-1.26.43-2.01 1.63-3.96 2.5-5.19.9.8 1.93 1.08 2.37.58.47-.53.1-1.72-.84-2.66-.94-.93-2.08-1.26-2.56-.73Z" fill="#3e3e3f" data-color="2"></path>
              <path d="M108.15 172.06s-2.3 4.04-2.92 6.83c-.63 2.79.73 6.9.99 7.2.26.31 5.81-1.51 6.98-5.18 1.17-3.67-.26-7.07-1.48-8.08-1.22-1.01-2.62-2.15-3.57-.77Z" fill="#fcae5d" data-color="1"></path>
            </g>
          </svg>